<svg width="40" height="40" viewBox="0 0 40 40" fill="none" xmlns="http://www.w3.org/2000/svg">
<path d="M20 1.25C30.3553 1.25 38.75 9.64466 38.75 20C38.75 30.3553 30.3553 38.75 20 38.75C9.64466 38.75 1.25 30.3553 1.25 20C1.25 9.64466 9.64466 1.25 20 1.25Z" fill="white"/>
<path d="M20 1.25C30.3553 1.25 38.75 9.64466 38.75 20C38.75 30.3553 30.3553 38.75 20 38.75C9.64466 38.75 1.25 30.3553 1.25 20C1.25 9.64466 9.64466 1.25 20 1.25Z" stroke="#F9DCD2" stroke-width="2.5"/>
<path d="M20 11.6667C24.6025 11.6667 28.3333 15.3976 28.3333 20.0001C28.3333 24.6026 24.6025 28.3334 20 28.3334C18.4818 28.3358 16.9921 27.9213 15.6933 27.1351L13.1667 27.8784C13.0216 27.9211 12.8677 27.9239 12.7212 27.8865C12.5747 27.8492 12.4409 27.773 12.334 27.6661C12.227 27.5592 12.1509 27.4254 12.1135 27.2789C12.0762 27.1324 12.079 26.9785 12.1217 26.8334L12.865 24.3067C12.0791 23.0078 11.6646 21.5182 11.6667 20.0001C11.6667 15.3976 15.3975 11.6667 20 11.6667ZM20 13.3334C18.8064 13.3332 17.6345 13.6535 16.6069 14.2608C15.5793 14.8681 14.7336 15.7401 14.1581 16.7859C13.5826 17.8316 13.2985 19.0127 13.3353 20.2058C13.3721 21.3988 13.7286 22.5602 14.3675 23.5684C14.5567 23.8659 14.6217 24.2409 14.515 24.6017L14.1475 25.8526L15.3983 25.4851C15.7592 25.3784 16.1342 25.4434 16.4317 25.6326C17.3053 26.1857 18.2956 26.5281 19.3243 26.6326C20.353 26.7371 21.3919 26.6009 22.3589 26.2347C23.3259 25.8686 24.1945 25.2825 24.896 24.5228C25.5975 23.7632 26.1126 22.8507 26.4007 21.8577C26.6888 20.8646 26.742 19.8181 26.556 18.801C26.3701 17.7839 25.95 16.8239 25.3292 15.9971C24.7083 15.1702 23.9036 14.4991 22.9787 14.0368C22.0538 13.5745 21.034 13.3337 20 13.3334ZM17.0833 18.7501C17.4149 18.7501 17.7328 18.8818 17.9672 19.1162C18.2016 19.3506 18.3333 19.6686 18.3333 20.0001C18.3333 20.3316 18.2016 20.6495 17.9672 20.884C17.7328 21.1184 17.4149 21.2501 17.0833 21.2501C16.7518 21.2501 16.4339 21.1184 16.1995 20.884C15.965 20.6495 15.8333 20.3316 15.8333 20.0001C15.8333 19.6686 15.965 19.3506 16.1995 19.1162C16.4339 18.8818 16.7518 18.7501 17.0833 18.7501ZM22.9167 18.7501C23.2482 18.7501 23.5661 18.8818 23.8006 19.1162C24.035 19.3506 24.1667 19.6686 24.1667 20.0001C24.1667 20.3316 24.035 20.6495 23.8006 20.884C23.5661 21.1184 23.2482 21.2501 22.9167 21.2501C22.5851 21.2501 22.2672 21.1184 22.0328 20.884C21.7984 20.6495 21.6667 20.3316 21.6667 20.0001C21.6667 19.6686 21.7984 19.3506 22.0328 19.1162C22.2672 18.8818 22.5851 18.7501 22.9167 18.7501Z" fill="#D87757"/>
</svg>
