<svg width="24" height="24" viewBox="0 0 24 24" fill="none" xmlns="http://www.w3.org/2000/svg">
<path d="M12.9873 5.73999C13.3715 5.52204 13.6728 5.18301 13.844 4.77582C14.0153 4.36863 14.047 3.91618 13.934 3.48911C13.8211 3.06204 13.57 2.68437 13.2198 2.41505C12.8697 2.14573 12.4402 1.99992 11.9985 2.00037C11.5567 2.00082 11.1275 2.1475 10.7779 2.41753C10.4283 2.68756 10.178 3.06574 10.0659 3.49304C9.95385 3.92034 9.98642 4.37272 10.1585 4.77956C10.3306 5.1864 10.6326 5.52482 11.0173 5.74199L11.0073 5.75999C10.3523 7.12699 9.44226 9.08499 8.03726 9.81999C6.88326 10.423 5.22726 10.12 3.99726 9.89399C3.97753 9.6143 3.8798 9.34574 3.71516 9.11878C3.55053 8.89182 3.32558 8.71555 3.06583 8.60997C2.80609 8.50438 2.52195 8.47371 2.24566 8.52144C1.96937 8.56916 1.71198 8.69337 1.50271 8.87997C1.29343 9.06657 1.14065 9.30809 1.06169 9.57712C0.982725 9.84616 0.980751 10.1319 1.05599 10.402C1.13122 10.6721 1.28065 10.9158 1.48733 11.1052C1.69401 11.2947 1.94965 11.4225 2.22526 11.474L5.17326 19.084C5.39188 19.6482 5.77599 20.133 6.27515 20.475C6.77432 20.8169 7.36521 20.9999 7.97026 21H16.0303C16.6353 20.9999 17.2262 20.8169 17.7254 20.475C18.2245 20.133 18.6086 19.6482 18.8273 19.084L21.7743 11.474C22.0481 11.423 22.3024 11.2968 22.5086 11.1095C22.7147 10.9221 22.8647 10.6811 22.9415 10.4133C23.0184 10.1456 23.0192 9.86168 22.9439 9.59349C22.8685 9.32531 22.7199 9.08341 22.5148 8.8949C22.3097 8.7064 22.0562 8.57873 21.7826 8.52621C21.509 8.47369 21.2262 8.49839 20.9659 8.59755C20.7056 8.6967 20.478 8.86639 20.3087 9.0876C20.1394 9.30881 20.035 9.5728 20.0073 9.84999C18.7483 10.013 17.1253 10.221 15.9633 9.61399C14.5863 8.89399 13.6633 7.07099 12.9873 5.73999Z" fill="#A1A1A1"/>
</svg>
