<svg width="358" height="200" viewBox="0 0 358 200" fill="none" xmlns="http://www.w3.org/2000/svg">
<g clip-path="url(#clip0_51489_3850)">
<path d="M358 0H0V200H358V0Z" fill="#FFF9F3"/>
<mask id="mask0_51489_3850" style="mask-type:luminance" maskUnits="userSpaceOnUse" x="0" y="0" width="358" height="200">
<path d="M358 0H0V200H358V0Z" fill="white"/>
</mask>
<g mask="url(#mask0_51489_3850)">
<g opacity="0.2">
<path d="M178.75 165.57C214.825 165.57 244.07 136.325 244.07 100.25C244.07 64.1747 214.825 34.9299 178.75 34.9299C142.675 34.9299 113.43 64.1747 113.43 100.25C113.43 136.325 142.675 165.57 178.75 165.57Z" fill="#D87757"/>
</g>
<path d="M179 198.49C233.395 198.49 277.49 154.395 277.49 100C277.49 45.6055 233.395 1.51001 179 1.51001C124.605 1.51001 80.51 45.6055 80.51 100C80.51 154.395 124.605 198.49 179 198.49Z" fill="url(#paint0_linear_51489_3850)"/>
<path d="M179 197.99C233.118 197.99 276.99 154.118 276.99 100C276.99 45.8816 233.118 2.01001 179 2.01001C124.882 2.01001 81.01 45.8816 81.01 100C81.01 154.118 124.882 197.99 179 197.99Z" stroke="url(#paint1_linear_51489_3850)" stroke-opacity="0.2" stroke-width="1.01"/>
<path d="M179 159.5C211.861 159.5 238.5 132.861 238.5 100C238.5 67.1391 211.861 40.5 179 40.5C146.139 40.5 119.5 67.1391 119.5 100C119.5 132.861 146.139 159.5 179 159.5Z" fill="url(#paint2_linear_51489_3850)" fill-opacity="0.1"/>
<path d="M179 158.99C211.579 158.99 237.99 132.579 237.99 100C237.99 67.4207 211.579 41.01 179 41.01C146.421 41.01 120.01 67.4207 120.01 100C120.01 132.579 146.421 158.99 179 158.99Z" stroke="#D87757" stroke-opacity="0.2" stroke-width="1.01"/>
<path d="M179 131.14C196.198 131.14 210.14 117.198 210.14 100C210.14 82.802 196.198 68.8601 179 68.8601C161.802 68.8601 147.86 82.802 147.86 100C147.86 117.198 161.802 131.14 179 131.14Z" fill="#D87757" fill-opacity="0.1"/>
<path d="M179 130.64C195.922 130.64 209.64 116.922 209.64 100C209.64 83.0781 195.922 69.3601 179 69.3601C162.078 69.3601 148.36 83.0781 148.36 100C148.36 116.922 162.078 130.64 179 130.64Z" stroke="#D87757" stroke-opacity="0.2" stroke-width="1.01"/>
<path d="M170.85 92.3499L182.66 99.1699C183.3 99.5399 184.09 99.0799 184.09 98.3399V90.1599C184.09 89.8199 183.91 89.4999 183.61 89.3299L181.03 87.8399C180.39 87.4699 179.6 87.9299 179.6 88.6699V90.5499C179.6 91.2899 178.8 91.7499 178.17 91.3799L171.81 87.7099C171.17 87.3399 170.38 87.7999 170.38 88.5399V91.5199C170.38 91.8599 170.56 92.1799 170.86 92.3499H170.85Z" fill="#D87757"/>
<path d="M191.65 99.0999L189.07 97.6099C188.77 97.4399 188.41 97.4399 188.11 97.6099L176.3 104.43C175.66 104.8 175.66 105.72 176.3 106.09L183.38 110.18C183.68 110.35 184.04 110.35 184.34 110.18L186.92 108.69C187.56 108.32 187.56 107.4 186.92 107.03L185.29 106.09C184.65 105.72 184.65 104.8 185.29 104.43L191.65 100.76C192.29 100.39 192.29 99.4699 191.65 99.0999Z" fill="#D87757"/>
<path d="M173.43 95.5L166.35 99.59C166.05 99.76 165.87 100.08 165.87 100.42V103.4C165.87 104.14 166.67 104.6 167.31 104.23L168.94 103.29C169.58 102.92 170.37 103.38 170.37 104.12V111.46C170.37 112.2 171.17 112.66 171.8 112.29L174.38 110.8C174.68 110.63 174.86 110.31 174.86 109.97V96.33C174.86 95.59 174.06 95.13 173.43 95.5Z" fill="#D87757"/>
</g>
<mask id="mask1_51489_3850" style="mask-type:luminance" maskUnits="userSpaceOnUse" x="0" y="0" width="358" height="200">
<path d="M358 0H0V200H358V0Z" fill="white"/>
</mask>
<g mask="url(#mask1_51489_3850)">
<path d="M178.54 67.6701C179.35 68.8201 179.07 70.4001 177.93 71.2101L128 106.37C126.86 107.17 125.28 106.89 124.48 105.75L119.51 98.6901L173.57 60.6101L178.54 67.6601V67.6701Z" fill="#D87757"/>
<path d="M170.077 55.6823L116.02 93.7583L119.504 98.7045L173.561 60.6285L170.077 55.6823Z" fill="#FFF9F3"/>
<path d="M167.504 52.0157L113.459 90.1257L116.035 93.7788L170.08 55.6688L167.504 52.0157Z" fill="#D87757"/>
<path d="M164.02 47.0801L167.5 52.0201L113.44 90.1101L109.96 85.1601L119.99 78.0901L164.02 47.0801Z" fill="black"/>
<path d="M164.02 47.0799L121.38 77.1099L119.99 78.0899L119.76 77.7599C120.8 77.0699 121.49 76.3599 121.94 75.6999C123.12 73.9899 122.72 72.5399 122.75 72.2299C122.75 72.0599 122.77 71.9299 122.75 71.8099C122.75 71.5699 122.7 71.3899 122.62 71.1499C122.52 70.8399 114.36 69.5999 111.5 69.1499L117.98 64.5799L154.92 38.5599C156.06 37.7499 157.64 38.0299 158.45 39.1699L164.02 47.0799Z" fill="#D87757"/>
<path d="M119.76 77.76C119.37 78.01 118.95 78.27 118.46 78.51C115.54 80.01 111.8 80.4 106.18 79.79C101.77 79.32 96.22 78.23 88.99 76.56C87.6 76.24 86.22 75.9 84.87 75.54C80.13 74.3 75.61 72.85 71.46 71.4C68.34 70.31 65.44 69.23 62.84 68.24C58.54 66.58 55.05 65.17 52.67 64.36C52.44 64.28 52.22 64.2 52.01 64.14C48.84 63.13 41.49 61.54 35.34 60.28C34.92 60.51 34.47 60.83 34.02 61.22C31.61 63.24 28.96 66.95 28.71 67.31L28.69 67.33C35.1 73.36 43.85 77.95 45.29 79.3C46.98 80.88 55.36 91.35 55.5 96.49C55.64 101.61 49.83 104.1 46.74 103.59C43.65 103.07 37.72 96.64 30.98 90.38C24.23 84.11 16.68 81.39 12.05 79.03C7.4 76.67 3.16 70.13 1.47 67.79C-0.210001 65.44 -10.69 56.71 -12.48 54.21C-14.26 51.71 -21.35 40.08 -21.35 40.08L-28.13 -22.49C-28.13 -22.49 -25.2 -19.6 -17.03 -11.13C-8.88 -2.67999 -0.710001 1.92001 15.11 9.47001C30.94 17.02 58.82 26.19 60.32 27.54C61.82 28.89 68.66 40.87 68.66 40.87C75.35 44.71 92.61 54.12 100.5 57.53C106.59 60.17 112.78 62.85 117.98 64.58L111.5 69.15C111 69.08 110.67 69.02 110.56 69C110.56 69 108.71 70.99 108.74 71.84C108.77 72.69 111.07 74.37 115.84 74.7C120.62 75.04 122.11 74.66 122.76 71.8C122.76 71.92 122.76 72.06 122.76 72.22C122.72 72.64 123.5 75.27 119.77 77.75L119.76 77.76Z" fill="#FFF9F3"/>
<path d="M34.01 61.21C31.6 63.23 28.95 66.94 28.7 67.3C26.44 65.35 23.33 61.71 24 61.3C24.63 60.91 30.67 61.08 34.01 61.21Z" fill="#D87757"/>
<path d="M64.22 81.3601C64.18 82.6301 63.73 83.1401 63.51 83.0401H63.33C63.15 83.1101 62.79 83.3001 61.56 83.2501C59.86 83.1801 55.9 81.4601 54.81 77.2101C54.23 74.9601 53.67 71.4801 53.26 68.7001C52.91 66.2401 52.67 64.3501 52.67 64.3501C55.04 65.1601 58.54 66.5801 62.84 68.2301C62.86 68.4901 63.11 73.3901 63.14 74.3101V74.4301C63.14 74.4901 63.17 74.6901 63.22 74.9701C63.47 76.4301 64.25 80.2801 64.22 81.3501V81.3601Z" fill="#FFF9F3"/>
<path d="M88.41 97.2802C88.29 97.7102 87.68 98.2802 87.23 98.4602C86.79 98.6302 83.59 99.4102 80.29 96.3102C77.01 93.2101 77.02 87.1402 75.96 83.5002C75.58 82.2102 74.91 80.3202 74.19 78.4102C72.88 74.9302 71.45 71.4102 71.45 71.4102C75.6 72.8502 80.13 74.3002 84.86 75.5402C84.86 75.5402 85.76 80.4702 86.3 83.6702C86.51 84.9502 86.68 85.9502 86.7 86.2502C86.7 86.3702 86.74 86.6102 86.78 86.9302C87.16 89.3902 88.51 96.8902 88.4 97.2802H88.41Z" fill="#FFF9F3"/>
<path d="M62.83 68.2401C62.85 68.5001 63.1 73.4001 63.13 74.3201C60.55 72.4201 57.18 70.3201 53.25 68.7101C52.9 66.2501 52.66 64.3601 52.66 64.3601C55.03 65.1701 58.53 66.5901 62.83 68.2401Z" fill="black"/>
<path d="M86.31 83.6799C82.44 81.5499 77.48 79.6099 74.19 78.4199C72.88 74.9399 71.45 71.4199 71.45 71.4199C75.6 72.8599 80.13 74.3099 84.86 75.5499C84.86 75.5499 85.76 80.4799 86.3 83.6799H86.31Z" fill="black"/>
<path d="M122.63 71.15C122.71 71.39 122.76 71.57 122.76 71.81C122.12 74.67 120.63 75.05 115.84 74.71C111.07 74.38 108.77 72.7 108.74 71.85C108.71 70.99 110.56 69.01 110.56 69.01C110.67 69.03 111 69.08 111.5 69.16C114.36 69.6 122.52 70.84 122.62 71.16L122.63 71.15Z" fill="#F0C9B8"/>
<path d="M119.99 78.09L115.65 81.14L109.96 85.15L108.13 82.56L106.18 79.8C111.8 80.4 115.55 80.01 118.46 78.51C118.95 78.26 119.37 78 119.76 77.76L119.99 78.09Z" fill="#D87757"/>
<path d="M121.94 75.7C121.84 76.11 121.66 76.6 121.38 77.11C120.62 78.54 119 80.16 115.65 81.15C115.24 81.28 114.8 81.39 114.33 81.49C112.02 81.99 109.93 82.33 108.13 82.57L106.18 79.81C111.8 80.41 115.55 80.02 118.46 78.52C118.95 78.27 119.37 78.01 119.76 77.77C120.8 77.08 121.49 76.37 121.94 75.71V75.7Z" fill="black"/>
<path d="M86.79 86.9299C87.17 89.3899 88.52 96.8899 88.41 97.2799C88.29 97.7099 87.68 98.2799 87.23 98.4599C87.23 98.4599 85.09 96.5499 84.56 93.2299C84.04 90.0499 86.58 87.1599 86.79 86.9299Z" fill="#F0C9B8"/>
<path d="M63.22 74.98C63.47 76.44 64.25 80.29 64.22 81.36C64.18 82.63 63.73 83.14 63.51 83.04C63.48 83.04 63.45 83.04 63.43 83.02C61.95 82.72 62.45 80.63 62.52 78.5C62.58 76.35 63.21 74.98 63.21 74.98H63.22Z" fill="#F0C9B8"/>
<path d="M111.49 69.1499C110.99 69.0799 110.66 69.0199 110.55 68.9999C109.81 68.8699 109.57 68.9799 109.23 68.9299C108.89 68.8799 83.13 63.0399 60.25 46.3899" stroke="black" stroke-width="0.37" stroke-miterlimit="10" stroke-linecap="round"/>
<path d="M25.56 58.3201C25.56 58.3201 30 59.1801 35.34 60.2701C41.49 61.5301 48.84 63.1201 52.01 64.1301C52.22 64.1901 52.44 64.2701 52.67 64.3501C55.04 65.1601 58.54 66.5801 62.84 68.2301C65.44 69.2201 68.34 70.3101 71.46 71.3901C75.61 72.8401 80.14 74.2901 84.87 75.5301C86.22 75.8901 87.6 76.2301 88.99 76.5501C96.21 78.2201 101.77 79.3101 106.18 79.7801C111.8 80.3901 115.55 80.0001 118.46 78.5001C118.95 78.2501 119.37 77.9901 119.76 77.7501C119.93 77.6401 120.08 77.5301 120.24 77.4201C123.42 75.0401 122.71 72.6301 122.75 72.2201C122.75 72.0501 122.77 71.9201 122.75 71.8001C122.75 71.5601 122.7 71.3801 122.62 71.1401C122.52 70.8301 114.36 69.5901 111.5 69.1401" stroke="black" stroke-width="0.37" stroke-miterlimit="10" stroke-linecap="round"/>
<path d="M28.68 67.33C28.88 67.04 32.65 61.73 35.33 60.27" stroke="black" stroke-width="0.37" stroke-miterlimit="10" stroke-linecap="round"/>
<path d="M58.33 32.51C58.33 32.51 61.94 36.93 67.51 40.2C67.85 40.39 68.23 40.62 68.66 40.86C75.35 44.7 92.61 54.11 100.5 57.52C106.59 60.16 112.78 62.84 117.98 64.57" stroke="black" stroke-width="0.37" stroke-miterlimit="10" stroke-linecap="round"/>
<path d="M109.96 85.16L106.18 79.8" stroke="black" stroke-width="0.37" stroke-miterlimit="10" stroke-linecap="round"/>
<path d="M116.02 93.7501L113.44 90.1101" stroke="black" stroke-width="0.37" stroke-miterlimit="10" stroke-linecap="round"/>
<path d="M173.57 60.6199L178.54 67.6699C179.35 68.8199 179.07 70.3999 177.93 71.2099L128 106.37C126.86 107.17 125.28 106.89 124.48 105.75L119.51 98.6899" stroke="black" stroke-width="0.37" stroke-miterlimit="10" stroke-linecap="round"/>
<path d="M167.5 52.02L170.08 55.67" stroke="black" stroke-width="0.37" stroke-miterlimit="10" stroke-linecap="round"/>
<path d="M111.49 69.1499L117.97 64.5799L154.91 38.5599C156.05 37.7499 157.63 38.0299 158.44 39.1699L164.01 47.0799" stroke="black" stroke-width="0.37" stroke-miterlimit="10" stroke-linecap="round"/>
<path d="M113.44 90.1099L109.96 85.1599" stroke="black" stroke-width="0.37" stroke-miterlimit="10" stroke-linecap="round"/>
<path d="M167.5 52.0201L164.02 47.0801" stroke="black" stroke-width="0.37" stroke-miterlimit="10" stroke-linecap="round"/>
<path d="M119.51 98.7L116.02 93.75" stroke="black" stroke-width="0.37" stroke-miterlimit="10" stroke-linecap="round"/>
<path d="M173.57 60.6199L170.08 55.6699" stroke="black" stroke-width="0.37" stroke-miterlimit="10" stroke-linecap="round"/>
<path d="M63.52 83.04C63.74 83.14 64.19 82.63 64.23 81.36C64.26 80.29 63.48 76.45 63.23 74.98C63.17 74.69 63.15 74.5 63.15 74.44C63.15 74.03 62.86 68.52 62.85 68.24" stroke="black" stroke-width="0.37" stroke-miterlimit="10" stroke-linecap="round"/>
<path d="M52.67 64.3601C52.67 64.3601 53.73 72.9801 54.81 77.2201C55.9 81.4601 59.86 83.1801 61.56 83.2601C62.78 83.3101 63.14 83.1201 63.33 83.0501C63.37 83.0501 63.4 83.0301 63.43 83.0301" stroke="black" stroke-width="0.37" stroke-miterlimit="10" stroke-linecap="round"/>
<path d="M71.46 71.4099C71.46 71.4099 74.9 79.8599 75.97 83.4999C77.04 87.1399 77.02 93.2099 80.3 96.3099C83.59 99.4099 86.8 98.6399 87.24 98.4599C87.69 98.2899 88.3 97.7099 88.42 97.2799C88.53 96.8899 87.18 89.3899 86.8 86.9299C86.75 86.6099 86.73 86.3699 86.72 86.2499C86.66 85.2099 84.88 75.5499 84.88 75.5499" stroke="black" stroke-width="0.37" stroke-miterlimit="10" stroke-linecap="round"/>
<path d="M68.66 40.87C68.66 40.87 61.82 28.89 60.32 27.54C58.82 26.19 30.94 17.02 15.11 9.46999C-0.709999 1.91999 -8.88 -2.68001 -17.04 -11.15C-25.21 -19.62 -28.14 -22.51 -28.14 -22.51L-21.36 40.06C-21.36 40.06 -14.28 51.69 -12.49 54.19C-10.7 56.69 -0.220001 65.42 1.46 67.77C3.15 70.12 7.39 76.65 12.04 79.01C16.68 81.37 24.22 84.1 30.97 90.36C37.71 96.63 43.64 103.06 46.73 103.57C49.82 104.08 55.63 101.59 55.49 96.47C55.35 91.34 46.97 80.87 45.28 79.28C43.84 77.93 35.1 73.34 28.68 67.31C27.56 66.27 26.52 65.18 25.59 64.04" stroke="black" stroke-width="0.37" stroke-miterlimit="10" stroke-linecap="round"/>
<path d="M-1.94 3.72998C-1.94 3.72998 9.96 10.87 26.16 17.21C42.36 23.55 54.86 27.67 54.86 27.67" stroke="#D87757" stroke-width="0.37" stroke-miterlimit="10" stroke-linecap="round"/>
<path d="M47.88 44.9399L54.34 48.5399" stroke="#D87757" stroke-width="0.37" stroke-miterlimit="10" stroke-linecap="round"/>
<path d="M155.236 41.0614L150.765 44.3165C150.221 44.7131 150.101 45.4762 150.497 46.0209L153.752 50.4914C154.149 51.0361 154.912 51.1561 155.457 50.7595L159.927 47.5044C160.472 47.1077 160.592 46.3447 160.195 45.8L156.94 41.3295C156.544 40.7848 155.781 40.6648 155.236 41.0614Z" fill="#F0C9B8"/>
<path d="M155.27 41.2224L151.35 44.0772C150.876 44.4218 150.772 45.0848 151.117 45.5581L153.971 49.4788C154.316 49.9521 154.979 50.0564 155.452 49.7118L159.373 46.8569C159.846 46.5123 159.951 45.8493 159.606 45.3761L156.751 41.4553C156.407 40.9821 155.744 40.8778 155.27 41.2224Z" fill="#F0C9B8"/>
<path d="M294.96 157.88C294.56 159.13 294.9 161.62 295.38 162.43C295.87 163.24 294.86 163.91 293.96 164.1C293.05 164.29 290.3 163.38 290.18 160.94C290.05 158.49 292.49 157.85 293.4 157.72C294.32 157.6 294.95 157.87 294.95 157.87L294.96 157.88Z" fill="#D87757"/>
<path d="M287.25 98.55C287.59 99.08 287.05 102.19 284.7 102.37C282.34 102.55 280.15 99.85 277.98 97.37C275.92 95 276.94 93.09 277.04 92.92C278.3 92.54 279.73 93.11 280.35 93.61C280.98 94.11 283.79 96.33 287.24 98.55H287.25Z" fill="#D87757"/>
<path d="M295.65 155.73C295.65 155.73 295.61 155.73 295.59 155.73C294.24 155.57 285.05 156.49 285.05 156.49L282.2 155.63L280.19 153.87C279.13 154.38 277.89 154.96 276.58 155.63C276.03 157.76 274.62 159.51 272.24 159.87C272.11 159.89 271.98 159.91 271.85 159.92C271.08 160.01 270.51 159.96 270.04 159.79C268.95 160.93 268.77 161.89 268.76 162.82C268.74 164.28 271.04 166.97 272.87 167.64C274.71 168.32 286.77 168.98 292.45 166.97C292.71 166.88 292.96 166.79 293.2 166.7C298.25 164.79 299.39 162.92 299.53 160.82C299.68 158.65 297.02 155.96 295.65 155.74V155.73ZM293.97 164.11C293.06 164.3 290.31 163.39 290.19 160.95C290.06 158.5 292.5 157.86 293.41 157.73C294.33 157.61 294.96 157.88 294.96 157.88C294.56 159.13 294.9 161.62 295.38 162.43C295.87 163.24 294.86 163.91 293.96 164.1L293.97 164.11Z" fill="#F9E4D9"/>
<path d="M295.65 155.73C292.15 156.31 283.51 158.7 278.18 159.45C274.5 159.97 272.96 160.22 271.86 159.91C271.99 159.91 272.12 159.88 272.25 159.86C274.63 159.5 276.04 157.74 276.59 155.62C277.9 154.96 279.14 154.37 280.2 153.86L282.21 155.62L285.06 156.48C285.06 156.48 294.25 155.56 295.6 155.72C295.62 155.72 295.64 155.72 295.66 155.72L295.65 155.73Z" fill="#F0C9B8"/>
<path d="M312.05 108.01C306.28 106.41 298.31 104.07 293.87 102.17C293.81 102.14 293.75 102.12 293.7 102.09C291.54 101.15 289.28 99.8499 287.25 98.5499C283.8 96.3199 280.99 94.0999 280.36 93.5999C279.73 93.0999 278.31 92.5299 277.05 92.9099C276.3 93.1299 275.6 93.6799 275.18 94.8099C274.07 97.7799 275.3 104.34 279.32 109.25C279.7 109.71 280.07 110.15 280.46 110.57L279.08 110.99C278.08 110.01 276.79 108.82 275.21 107.44C272.23 104.83 269.75 103.01 267.44 101.59C266.48 100.99 265.55 100.47 264.62 99.9799C264.13 99.7199 263.28 99.3799 262.15 98.9899C259.37 97.9999 255 96.6499 250.84 95.3699C245.61 93.7499 240.73 92.2099 239.79 91.5699C237.8 90.2199 234.9 88.0599 235.46 84.7999C235.56 84.1899 235.72 83.6299 235.97 83.1299C237.05 80.9099 239.94 79.8699 248.41 81.5999C258.8 83.7199 263.09 84.8799 266.87 85.4499C270.63 86.0199 273.75 87.3199 276.01 88.9599C278.26 90.5899 294.65 100.02 301.33 103.19C304.26 104.57 308.37 106.41 312.08 108.03L312.05 108.01Z" fill="#F9E4D9"/>
<path d="M312.05 108.01C306.28 106.41 298.31 104.07 293.87 102.17C293.81 102.14 293.75 102.12 293.7 102.09C291.54 101.15 289.28 99.8499 287.25 98.5499C283.8 96.3199 280.99 94.0999 280.36 93.5999C279.73 93.0999 278.31 92.5299 277.05 92.9099C276.3 93.1299 275.6 93.6799 275.18 94.8099C274.07 97.7799 275.3 104.34 279.32 109.25C279.7 109.71 280.07 110.15 280.46 110.57L279.08 110.99C278.08 110.01 276.79 108.82 275.21 107.44C272.23 104.83 269.75 103.01 267.44 101.59C266.48 100.99 265.55 100.47 264.62 99.9799C264.13 99.7199 263.28 99.3799 262.15 98.9899C263.1 97.0799 263.01 94.1099 261.5 91.7199C259.36 88.3399 252.92 86.8199 245.76 84.7599C241.92 83.6699 238.34 82.7199 235.97 83.1099C237.05 80.8899 239.94 79.8499 248.41 81.5799C258.8 83.6999 263.09 84.8599 266.87 85.4299C270.63 85.9999 273.75 87.2999 276.01 88.9399C278.26 90.5699 294.65 99.9999 301.33 103.17C304.26 104.55 308.37 106.39 312.08 108.01H312.05Z" fill="#F0C9B8"/>
<path d="M333.07 115.41C331.4 114.29 330.32 113.55 330.12 113.43C329.02 112.78 321.74 110.67 316.76 109.31C315.55 108.99 313.94 108.55 312.1 108.03C312.1 108.03 312.08 108.03 312.06 108.01C306.29 106.41 298.32 104.07 293.88 102.17C293.82 102.14 293.76 102.12 293.71 102.09C291.55 101.15 289.29 99.8499 287.26 98.5499C287.53 98.9699 287.26 100.97 285.98 101.9C285.64 102.16 285.22 102.33 284.71 102.37C282.35 102.55 280.16 99.8499 277.99 97.3699C275.93 94.9999 276.95 93.0899 277.05 92.9199C276.3 93.1399 275.6 93.6899 275.18 94.8199C274.17 97.5299 275.1 103.22 278.32 107.93C278.63 108.38 278.96 108.83 279.32 109.26C279.7 109.72 280.07 110.16 280.46 110.58L279.08 111C280.75 112.63 281.6 113.67 281.65 114.01C281.71 114.55 281.19 114.46 277.43 113.81C273.67 113.16 257.25 109.21 255.33 109.32C253.41 109.42 233.02 113.62 226.92 114.81C220.82 116.02 219.27 117.9 218.92 120.69C218.56 123.49 219.47 126.19 226.05 126.91C232.63 127.63 246.85 124.13 250.75 124.59C251.9 124.73 253.84 124.89 256.14 125.13C261.6 125.69 269.07 126.64 272.7 128.4C274.82 129.42 276.22 131.13 277.15 132.8C273.87 134.6 263.62 134.14 259.27 135.05C254.48 136.03 252.27 140.4 253.23 143.4C254.19 146.4 258.35 150.13 263.77 153.89C267.92 156.78 268.24 159.12 270.05 159.78C270.59 159.97 271.28 160.01 272.25 159.86C274.63 159.5 276.04 157.74 276.59 155.62C277 154.02 276.93 152.22 276.42 150.65C276.06 149.56 275.35 148.52 274.54 147.58C274.54 147.58 281.05 148.21 282.52 149.17C283.18 149.6 283.6 150.15 283.7 150.7C283.7 150.8 283.72 150.9 283.73 150.99C283.73 151.55 283.39 152.11 282.66 152.57C282.13 152.91 281.26 153.35 280.2 153.86L282.21 155.62L285.06 156.48C285.06 156.48 294.25 155.56 295.6 155.72C296.96 155.89 299.68 158.61 299.54 160.81C299.4 162.91 298.26 164.78 293.21 166.69C299.54 168.2 319.74 172.95 330.2 174.26C342.69 175.83 362.39 180.35 362.39 180.35V177.48L362.49 134.35C358.27 132.57 340.26 120.3 333.07 115.42V115.41ZM272.53 151.32C272.15 151.32 270.45 153.26 269.95 154.54C269.45 155.83 269.36 157.67 269.36 157.67C268.87 156.87 266.74 154.42 266.67 153.35C266.61 152.28 267.54 150.72 269.42 150.46C271.3 150.2 272.89 151.31 272.52 151.32H272.53Z" fill="#F9E4D9"/>
<path d="M323.85 170.18C320.93 169.26 309.43 166.04 306.04 162C305.3 161.13 304.24 160.22 302.99 159.33C298.49 156.1 291.69 153.01 290.17 151.92C288.25 150.54 279.68 131.22 279.32 130.3C278.97 129.38 282.19 116.35 282.19 116.35C282.19 116.35 283.82 115.27 285.04 115.4C286.26 115.53 296.08 128.91 299.53 131.99C302.86 134.96 314.35 142.97 315.06 143.47C315 143.41 314.93 143.35 314.87 143.28C311.96 140.39 308.19 131.28 306.17 124.75C304.62 123.76 302.18 122.49 298.29 120.94C288.55 117.06 284.18 114.65 280.46 110.56L279.08 110.98C280.75 112.61 281.6 113.65 281.65 113.99C281.71 114.53 281.19 114.44 277.43 113.79C273.67 113.14 257.25 109.19 255.33 109.3C253.41 109.4 233.02 113.6 226.92 114.79C226.05 114.96 225.27 115.15 224.57 115.35C229.04 116.95 231.36 119.72 230.47 121.53C229.91 122.66 227.94 124.84 225.98 126.88C226 126.88 226.03 126.88 226.04 126.88C232.62 127.6 246.84 124.1 250.74 124.56C251.89 124.7 253.83 124.86 256.13 125.1C261.59 125.66 269.06 126.61 272.69 128.37C274.81 129.39 276.21 131.1 277.14 132.77C273.86 134.57 263.61 134.11 259.26 135.02C254.47 136 252.26 140.37 253.22 143.37C254.18 146.37 258.34 150.1 263.76 153.86C267.91 156.75 268.23 159.09 270.04 159.75C270.58 159.94 271.27 159.98 272.24 159.83C274.62 159.47 276.03 157.71 276.58 155.59C276.99 153.99 276.92 152.19 276.41 150.62C276.05 149.53 275.34 148.49 274.53 147.55C274.53 147.55 281.04 148.18 282.51 149.14C283.17 149.57 283.59 150.12 283.69 150.67C283.69 150.77 283.71 150.87 283.72 150.96C283.72 151.52 283.38 152.08 282.65 152.54C282.12 152.88 281.25 153.32 280.19 153.83L282.2 155.59L285.05 156.45C285.05 156.45 294.24 155.53 295.59 155.69C296.95 155.86 299.67 158.58 299.53 160.78C299.39 162.88 298.25 164.75 293.2 166.66C299.53 168.17 319.73 172.92 330.19 174.23C342.68 175.8 362.38 180.32 362.38 180.32V177.45C350.1 175.23 325.99 170.83 323.84 170.15L323.85 170.18ZM272.53 151.32C272.15 151.32 270.45 153.26 269.95 154.54C269.45 155.83 269.36 157.67 269.36 157.67C268.87 156.87 266.74 154.42 266.67 153.35C266.61 152.28 267.54 150.72 269.42 150.46C271.3 150.2 272.89 151.31 272.52 151.32H272.53Z" fill="#F0C9B8"/>
<path d="M333.07 115.41C328.9 112.93 318.64 113.4 305.45 109.7C296.58 107.22 289.97 104.19 285.97 101.9C287.24 100.97 287.52 98.9698 287.25 98.5498C289.28 99.8598 291.54 101.15 293.7 102.09C293.76 102.13 293.82 102.15 293.87 102.17C298.31 104.07 306.28 106.41 312.05 108.01C312.07 108.01 312.08 108.03 312.09 108.03C313.94 108.55 315.55 108.99 316.75 109.31C321.73 110.67 329 112.78 330.11 113.43C330.31 113.55 331.4 114.29 333.06 115.41H333.07Z" fill="#F0C9B8"/>
<path d="M257.94 117.67C257.94 117.67 258.28 122.24 256.14 125.13" stroke="#D87757" stroke-width="0.37" stroke-miterlimit="10" stroke-linecap="round"/>
<path d="M272.96 94.51C272.96 94.51 272.15 99.35 267.43 101.59" stroke="#D87757" stroke-width="0.37" stroke-miterlimit="10" stroke-linecap="round"/>
<path d="M254.29 89.4299C254.29 89.4299 253.87 93.5299 250.84 95.3599" stroke="#D87757" stroke-width="0.37" stroke-miterlimit="10" stroke-linecap="round"/>
<path d="M293.7 102.09L292.66 104.88" stroke="#D87757" stroke-width="0.37" stroke-miterlimit="10" stroke-linecap="round"/>
<path d="M283.79 145.29C283.79 145.29 283.55 148.61 283.69 150.69C283.69 150.79 283.71 150.89 283.72 150.98L283.92 153.03" stroke="#D87757" stroke-width="0.37" stroke-miterlimit="10" stroke-linecap="round"/>
<path d="M270.09 143.79C270.09 143.79 271.08 144.41 272.3 145.42C273.02 146.02 273.82 146.75 274.54 147.57C275.35 148.51 276.06 149.56 276.42 150.64C276.94 152.2 277.01 154.01 276.59 155.61C276.04 157.74 274.63 159.49 272.25 159.85C271.28 160 270.59 159.96 270.05 159.77C268.24 159.12 267.92 156.77 263.77 153.88C258.35 150.12 254.18 146.39 253.23 143.39C252.27 140.38 254.48 136.02 259.27 135.04C263.62 134.13 273.87 134.59 277.15 132.79" stroke="black" stroke-width="0.37" stroke-miterlimit="10" stroke-linecap="round"/>
<path d="M278.84 137.51C278.84 137.51 278.5 135.2 277.15 132.79C276.22 131.12 274.81 129.41 272.7 128.39C269.07 126.63 261.6 125.69 256.14 125.12C253.84 124.88 251.9 124.72 250.75 124.58C246.85 124.12 232.63 127.62 226.05 126.9C219.47 126.18 218.56 123.48 218.92 120.68C219.27 117.89 220.82 116.01 226.92 114.8C233.02 113.6 253.41 109.41 255.33 109.31C257.25 109.2 273.67 113.15 277.43 113.8C281.19 114.45 281.72 114.55 281.65 114C281.6 113.66 280.75 112.62 279.08 110.99C278.08 110.01 276.79 108.82 275.21 107.44C272.23 104.83 269.75 103.01 267.44 101.59C266.48 100.99 265.55 100.47 264.62 99.9799C262.95 99.0999 256.68 97.1699 250.84 95.3599C245.61 93.7399 240.73 92.1999 239.79 91.5599C237.8 90.2099 234.9 88.0499 235.46 84.7899C236.02 81.5099 238.01 79.4599 248.4 81.5899C258.79 83.7099 263.08 84.8699 266.86 85.4399C270.62 86.0099 273.74 87.3099 276 88.9499C278.25 90.5799 294.64 100.01 301.32 103.18C304.25 104.56 308.36 106.4 312.07 108.02" stroke="black" stroke-width="0.37" stroke-miterlimit="10" stroke-linecap="round"/>
<path d="M308.79 127.38C308.79 127.38 308.86 126.49 306.18 124.76C304.63 123.77 302.19 122.5 298.3 120.95C288.56 117.07 284.19 114.66 280.47 110.57C280.08 110.15 279.71 109.71 279.33 109.25C278.97 108.82 278.64 108.37 278.33 107.92C275.11 103.21 274.18 97.52 275.19 94.81C275.6 93.69 276.3 93.14 277.06 92.91C278.32 92.53 279.75 93.1 280.37 93.6C281 94.1 283.81 96.32 287.26 98.54" stroke="black" stroke-width="0.37" stroke-miterlimit="10" stroke-linecap="round"/>
<path d="M293.2 166.68C299.53 168.19 319.73 172.94 330.19 174.25C342.68 175.82 362.38 180.34 362.38 180.34L362.48 134.34C357.28 132.14 331.21 114.07 330.1 113.43C329 112.78 321.72 110.67 316.74 109.31C315.53 108.99 313.92 108.55 312.08 108.03C312.08 108.03 312.06 108.03 312.04 108.01C306.27 106.41 298.3 104.07 293.86 102.17C293.8 102.14 293.74 102.12 293.69 102.09C291.53 101.15 289.27 99.8498 287.24 98.5498" stroke="black" stroke-width="0.37" stroke-miterlimit="10" stroke-linecap="round"/>
<path d="M285.05 156.48C285.05 156.48 294.24 155.56 295.59 155.72C296.95 155.89 299.67 158.61 299.53 160.81C299.39 162.91 298.25 164.78 293.2 166.69C292.96 166.77 292.71 166.86 292.45 166.96C286.77 168.97 274.71 168.31 272.87 167.63C271.04 166.96 268.74 164.27 268.76 162.81C268.76 161.88 268.95 160.92 270.04 159.78" stroke="black" stroke-width="0.37" stroke-miterlimit="10" stroke-linecap="round"/>
<path d="M283.69 150.69C283.59 150.14 283.17 149.6 282.51 149.16C281.05 148.2 274.53 147.57 274.53 147.57" stroke="black" stroke-width="0.37" stroke-miterlimit="10" stroke-linecap="round"/>
<path d="M276.59 155.62C277.9 154.96 279.14 154.37 280.2 153.86C281.26 153.35 282.12 152.91 282.66 152.57C283.39 152.11 283.72 151.55 283.73 150.99" stroke="black" stroke-width="0.37" stroke-miterlimit="10" stroke-linecap="round"/>
<path d="M282.2 155.62L285.05 156.48" stroke="black" stroke-width="0.37" stroke-miterlimit="10" stroke-linecap="round"/>
<path d="M270.78 141.59C270.78 141.59 272.18 144.28 272.3 145.43" stroke="black" stroke-width="0.37" stroke-miterlimit="10" stroke-linecap="round"/>
<path d="M291.93 129.31C291.93 129.31 303.64 151.48 303.24 163.41" stroke="#D87757" stroke-width="0.37" stroke-miterlimit="10" stroke-linecap="round"/>
<path d="M306.04 134.34C306.07 134.92 320.77 149.75 326.73 152.59C332.69 155.43 340.01 157.13 340.01 157.13" stroke="#D87757" stroke-width="0.37" stroke-miterlimit="10" stroke-linecap="round"/>
<path d="M254.63 118.22C254.63 118.22 253.8 121.63 253.85 122.93" stroke="#D87757" stroke-width="0.37" stroke-miterlimit="10" stroke-linecap="round"/>
<path d="M280.49 118.22C280.49 118.34 278.54 127.25 278.18 127.99" stroke="#D87757" stroke-width="0.37" stroke-miterlimit="10" stroke-linecap="round"/>
<path d="M269.47 94.9199L266.99 98.6699" stroke="#D87757" stroke-width="0.37" stroke-miterlimit="10" stroke-linecap="round"/>
<path d="M269.36 157.67C268.87 156.87 266.74 154.42 266.67 153.36C266.6 152.3 267.54 150.73 269.42 150.47C271.3 150.21 272.89 151.32 272.52 151.33C272.14 151.33 270.44 153.27 269.94 154.55C269.44 155.84 269.35 157.68 269.35 157.68L269.36 157.67Z" fill="#D87757"/>
</g>
</g>
<defs>
<linearGradient id="paint0_linear_51489_3850" x1="179" y1="1.51001" x2="179" y2="198.49" gradientUnits="userSpaceOnUse">
<stop stop-color="#D87757" stop-opacity="0.2"/>
<stop offset="1" stop-color="white" stop-opacity="0"/>
</linearGradient>
<linearGradient id="paint1_linear_51489_3850" x1="179" y1="1.51001" x2="179" y2="198.49" gradientUnits="userSpaceOnUse">
<stop stop-color="#D87757"/>
<stop offset="1" stop-color="#D87757" stop-opacity="0"/>
</linearGradient>
<linearGradient id="paint2_linear_51489_3850" x1="179" y1="159.5" x2="179" y2="40.5" gradientUnits="userSpaceOnUse">
<stop stop-color="#D87757" stop-opacity="0.2"/>
<stop offset="1" stop-color="#D87757"/>
</linearGradient>
<clipPath id="clip0_51489_3850">
<rect width="358" height="200" fill="white"/>
</clipPath>
</defs>
</svg>
