<svg width="40" height="40" viewBox="0 0 40 40" fill="none" xmlns="http://www.w3.org/2000/svg">
<path d="M20 1.25C30.3553 1.25 38.75 9.64466 38.75 20C38.75 30.3553 30.3553 38.75 20 38.75C9.64466 38.75 1.25 30.3553 1.25 20C1.25 9.64466 9.64466 1.25 20 1.25Z" fill="white"/>
<path d="M20 1.25C30.3553 1.25 38.75 9.64466 38.75 20C38.75 30.3553 30.3553 38.75 20 38.75C9.64466 38.75 1.25 30.3553 1.25 20C1.25 9.64466 9.64466 1.25 20 1.25Z" stroke="#F9DCD2" stroke-width="2.5"/>
<path fill-rule="evenodd" clip-rule="evenodd" d="M19.5833 13.3333C17.3758 13.3333 15.6158 15.3166 15.8558 17.4999C15.8781 17.7021 15.8263 17.9055 15.7102 18.0725C15.5941 18.2395 15.4214 18.3587 15.2242 18.4083C14.6349 18.5593 14.1209 18.9198 13.7783 19.4223C13.4356 19.9249 13.2878 20.5351 13.3624 21.1387C13.4371 21.7424 13.7291 22.2982 14.1839 22.7021C14.6387 23.106 15.2251 23.3304 15.8333 23.3333H16.6667C16.8877 23.3333 17.0996 23.4211 17.2559 23.5774C17.4122 23.7336 17.5 23.9456 17.5 24.1666C17.5 24.3876 17.4122 24.5996 17.2559 24.7559C17.0996 24.9121 16.8877 24.9999 16.6667 24.9999H15.8333C14.8756 25.0006 13.9469 24.6712 13.2035 24.0674C12.4601 23.4635 11.9475 22.622 11.7518 21.6844C11.5562 20.7469 11.6895 19.7706 12.1293 18.9198C12.5691 18.069 13.2886 17.3957 14.1667 17.0133C14.1817 15.7499 14.638 14.5315 15.4564 13.569C16.2749 12.6064 17.4041 11.9603 18.6486 11.7423C19.8932 11.5244 21.1747 11.7484 22.2716 12.3755C23.3684 13.0027 24.2115 13.9935 24.655 15.1766C25.8211 15.4982 26.8311 16.2315 27.498 17.2406C28.165 18.2498 28.4436 19.4664 28.2823 20.6652C28.121 21.864 27.5307 22.9638 26.6208 23.7608C25.7109 24.5578 24.5429 24.998 23.3333 24.9999C23.1123 24.9999 22.9004 24.9121 22.7441 24.7559C22.5878 24.5996 22.5 24.3876 22.5 24.1666C22.5 23.9456 22.5878 23.7336 22.7441 23.5774C22.9004 23.4211 23.1123 23.3333 23.3333 23.3333C24.1709 23.3345 24.9782 23.0205 25.5947 22.4536C26.2112 21.8867 26.5916 21.1084 26.6604 20.2738C26.7292 19.4391 26.4813 18.6091 25.9659 17.9489C25.4506 17.2887 24.7056 16.8467 23.8792 16.7108C23.72 16.6845 23.5718 16.613 23.4521 16.5048C23.3325 16.3967 23.2464 16.2564 23.2042 16.1008C22.9881 15.306 22.5165 14.6044 21.8621 14.1042C21.2078 13.6041 20.407 13.3332 19.5833 13.3333ZM20.8333 20.3466L21.9108 21.4233C21.9883 21.5006 22.0803 21.562 22.1815 21.6038C22.2827 21.6457 22.3911 21.6671 22.5006 21.6671C22.6101 21.667 22.7185 21.6453 22.8196 21.6034C22.9208 21.5614 23.0126 21.4999 23.09 21.4224C23.1674 21.345 23.2287 21.253 23.2706 21.1518C23.3124 21.0506 23.3339 20.9422 23.3338 20.8327C23.3337 20.7232 23.3121 20.6148 23.2701 20.5136C23.2281 20.4125 23.1667 20.3206 23.0892 20.2433L20.7358 17.8941C20.5405 17.6992 20.2759 17.5897 20 17.5897C19.7241 17.5897 19.4595 17.6992 19.2642 17.8941L16.9108 20.2441C16.7545 20.4004 16.6666 20.6123 16.6665 20.8334C16.6664 21.0545 16.7542 21.2665 16.9104 21.4229C17.0667 21.5792 17.2787 21.6671 17.4997 21.6672C17.7208 21.6673 17.9328 21.5795 18.0892 21.4233L19.1667 20.3466V27.4999C19.1667 27.721 19.2545 27.9329 19.4107 28.0892C19.567 28.2455 19.779 28.3333 20 28.3333C20.221 28.3333 20.433 28.2455 20.5893 28.0892C20.7455 27.9329 20.8333 27.721 20.8333 27.4999V20.3466Z" fill="#D87757"/>
</svg>
