<svg width="40" height="40" viewBox="0 0 40 40" fill="none" xmlns="http://www.w3.org/2000/svg">
<path d="M20 1.25C30.3553 1.25 38.75 9.64466 38.75 20C38.75 30.3553 30.3553 38.75 20 38.75C9.64466 38.75 1.25 30.3553 1.25 20C1.25 9.64466 9.64466 1.25 20 1.25Z" fill="white"/>
<path d="M20 1.25C30.3553 1.25 38.75 9.64466 38.75 20C38.75 30.3553 30.3553 38.75 20 38.75C9.64466 38.75 1.25 30.3553 1.25 20C1.25 9.64466 9.64466 1.25 20 1.25Z" stroke="#FCE9E1" stroke-width="2.5"/>
<path d="M20 13.3333C20.7125 13.3333 21.4433 13.3516 22.1517 13.3816L22.9883 13.4216L23.7892 13.4691L24.5392 13.5199L25.2242 13.5733C25.9675 13.6302 26.667 13.9474 27.1996 14.4691C27.7322 14.9909 28.0637 15.6837 28.1358 16.4258L28.1692 16.7799L28.2317 17.5383C28.29 18.3241 28.3333 19.1808 28.3333 19.9999C28.3333 20.8191 28.29 21.6758 28.2317 22.4616L28.1692 23.2199C28.1583 23.3416 28.1475 23.4591 28.1358 23.5741C28.0637 24.3163 27.732 25.0092 27.1993 25.531C26.6665 26.0527 25.9668 26.3699 25.2233 26.4266L24.54 26.4791L23.79 26.5308L22.9883 26.5783L22.1517 26.6183C21.4349 26.6494 20.7175 26.6655 20 26.6666C19.2825 26.6655 18.5651 26.6494 17.8483 26.6183L17.0117 26.5783L16.2108 26.5308L15.4608 26.4791L14.7758 26.4266C14.0324 26.3697 13.3329 26.0525 12.8004 25.5307C12.2678 25.009 11.9363 24.3161 11.8642 23.5741L11.8308 23.2199L11.7683 22.4616C11.7046 21.6425 11.6707 20.8214 11.6667 19.9999C11.6667 19.1808 11.71 18.3241 11.7683 17.5383L11.8308 16.7799C11.8417 16.6583 11.8525 16.5408 11.8642 16.4258C11.9363 15.6838 12.2677 14.9911 12.8001 14.4694C13.3325 13.9476 14.0318 13.6303 14.775 13.5733L15.4592 13.5199L16.2092 13.4691L17.0108 13.4216L17.8475 13.3816C18.5646 13.3504 19.2822 13.3343 20 13.3333ZM20 14.9999C19.3125 14.9999 18.605 15.0183 17.9167 15.0466L17.1017 15.0858L16.3192 15.1316L15.5842 15.1816L14.9108 15.2341C14.5569 15.2592 14.2234 15.4088 13.9692 15.6564C13.7151 15.9039 13.5568 16.2335 13.5225 16.5866C13.425 17.5941 13.3333 18.8483 13.3333 19.9999C13.3333 21.1516 13.425 22.4058 13.5225 23.4133C13.5933 24.1399 14.17 24.7049 14.9108 24.7658L15.5842 24.8174L16.3192 24.8674L17.1017 24.9141L17.9167 24.9533C18.605 24.9816 19.3125 24.9999 20 24.9999C20.6875 24.9999 21.395 24.9816 22.0833 24.9533L22.8983 24.9141L23.6808 24.8683L24.4158 24.8183L25.0892 24.7658C25.443 24.7406 25.7766 24.591 26.0307 24.3435C26.2849 24.0959 26.4431 23.7664 26.4775 23.4133C26.575 22.4058 26.6667 21.1516 26.6667 19.9999C26.6667 18.8483 26.575 17.5941 26.4775 16.5866C26.4431 16.2335 26.2849 15.9039 26.0307 15.6564C25.7766 15.4088 25.443 15.2592 25.0892 15.2341L24.4158 15.1824L23.6808 15.1324L22.8983 15.0858L22.0833 15.0466C21.3893 15.0167 20.6947 15.0012 20 14.9999ZM18.3333 17.9791C18.3333 17.8976 18.3531 17.8174 18.3911 17.7454C18.4291 17.6733 18.4842 17.6117 18.5515 17.5658C18.6187 17.5199 18.6962 17.4911 18.7771 17.4819C18.8581 17.4728 18.94 17.4835 19.0158 17.5133L19.0833 17.5466L22.5833 19.5666C22.653 19.6068 22.712 19.6632 22.7552 19.7311C22.7984 19.799 22.8246 19.8763 22.8316 19.9565C22.8385 20.0366 22.826 20.1173 22.7951 20.1916C22.7643 20.2659 22.7159 20.3316 22.6542 20.3833L22.5833 20.4333L19.0833 22.4541C19.0128 22.4949 18.9333 22.5179 18.8519 22.521C18.7705 22.5241 18.6895 22.5073 18.616 22.472C18.5426 22.4367 18.4789 22.3839 18.4305 22.3183C18.3821 22.2528 18.3504 22.1763 18.3383 22.0958L18.3333 22.0208V17.9791Z" fill="#D87757"/>
</svg>
